<?xml version="1.0" encoding="utf-8"?>
<!-- Generator: Adobe Illustrator 19.1.0, SVG Export Plug-In . SVG Version: 6.00 Build 0)  -->
<!DOCTYPE svg PUBLIC "-//W3C//DTD SVG 1.1//EN" "http://www.w3.org/Graphics/SVG/1.1/DTD/svg11.dtd">
<svg version="1.1" xmlns="http://www.w3.org/2000/svg" xmlns:xlink="http://www.w3.org/1999/xlink" x="0px" y="0px"
	 viewBox="0 0 350 350" style="enable-background:new 0 0 350 350;" xml:space="preserve">
<style type="text/css">
	.st0{fill:#FFFFFF;}
	.st1{fill:#D1D2D2;}
	.st2{fill:none;stroke:#C7C7C7;stroke-miterlimit:10;}
	.st3{fill:none;stroke:#ADADAD;stroke-miterlimit:10;}
	.st4{fill:#0A78CD;stroke:#0A78CD;stroke-miterlimit:10;}
	.st5{fill:#0A78CD;}
	.st6{fill:#F3F3F3;}
	.st7{fill:#767576;}
	.st8{fill:#4D4E4E;}
	.st9{fill:#3A3F4F;}
	.st10{fill:#333333;}
	.st11{fill:#A88763;}
	.st12{fill:#00A59B;}
	.st13{fill:#F79421;}
	.st14{fill:none;stroke:#CCCBCB;stroke-width:1.032;stroke-miterlimit:10;}
	.st15{fill:#B3B2B3;}
	.st16{fill:#70553A;}
	.st17{fill:#D93E26;}
	.st18{fill:#C7C7C7;}
	.st19{fill:#6EC1E8;}
	.st20{fill:#FCB71E;}
	.st21{clip-path:url(#SVGID_2_);}
	.st22{fill:#58595B;}
	.st23{clip-path:url(#SVGID_4_);fill:#2A3281;}
	.st24{clip-path:url(#SVGID_4_);fill:#6DC1E8;}
	.st25{clip-path:url(#SVGID_4_);}
	.st26{clip-path:url(#SVGID_4_);fill:#FFFFFF;}
	.st27{clip-path:url(#SVGID_6_);}
	.st28{fill:none;stroke:#A6A8AB;stroke-width:4;stroke-miterlimit:10;}
	.st29{fill:#A78563;}
	.st30{fill:#17244E;}
	.st31{fill:#836442;}
	.st32{fill:#464646;}
	.st33{clip-path:url(#SVGID_8_);fill:#757575;}
	.st34{clip-path:url(#SVGID_8_);fill:#464646;}
	.st35{clip-path:url(#SVGID_8_);fill:#676868;}
	.st36{clip-path:url(#SVGID_8_);fill:#0872C4;}
	.st37{clip-path:url(#SVGID_8_);}
	.st38{clip-path:url(#SVGID_8_);fill:#FFFFFF;}
	.st39{clip-path:url(#SVGID_10_);fill:#2A3281;}
	.st40{clip-path:url(#SVGID_10_);fill:#909090;}
	.st41{clip-path:url(#SVGID_10_);}
	.st42{clip-path:url(#SVGID_10_);fill:#FFFFFF;}
	.st43{clip-path:url(#SVGID_12_);}
	.st44{fill:#95DBF4;}
	.st45{fill:#6DC1E8;}
	.st46{fill:#A6E4F7;}
	.st47{fill:#937A47;}
	.st48{fill:#737374;}
	.st49{fill-rule:evenodd;clip-rule:evenodd;fill:#515251;}
	.st50{fill:#A0D6F2;}
	.st51{fill:#A88663;}
	.st52{fill-rule:evenodd;clip-rule:evenodd;fill:#A88663;}
	.st53{fill-rule:evenodd;clip-rule:evenodd;fill:none;}
	.st54{clip-path:url(#SVGID_16_);fill-rule:evenodd;clip-rule:evenodd;fill:#221F1F;}
	.st55{fill:#11743C;}
	.st56{fill:#4F5251;}
	.st57{fill:#513B27;}
	.st58{fill:#A08260;}
	.st59{fill:none;stroke:#FFFFFF;stroke-width:0.1456;stroke-linecap:round;stroke-linejoin:round;stroke-miterlimit:10;}
	.st60{fill:#563F25;}
	.st61{fill:#C49970;}
	.st62{fill:#2A3281;}
	.st63{fill:#B9131A;}
	.st64{fill:#DB5B26;}
	.st65{fill:#FCB713;}
	.st66{fill:#AB3924;}
	.st67{fill:#909090;}
	.st68{fill:#909090;stroke:#6D6E70;stroke-width:2;stroke-miterlimit:10;}
	.st69{fill:#D0D2D3;}
	.st70{fill:#6D6E70;}
	.st71{fill:#BBBDBF;}
	.st72{fill:#08BBF1;}
	.st73{fill:#71563B;}
	.st74{fill:#757575;}
	.st75{fill:none;}
	.st76{fill:#4BC0BE;}
	.st77{fill:#E3E3E3;}
	.st78{fill:none;stroke:#929497;stroke-width:4;stroke-miterlimit:10;}
	.st79{fill:#E71223;}
	.st80{fill:#F7CD47;}
	.st81{fill:#F5891F;}
	.st82{fill:#A77C4F;}
	.st83{clip-path:url(#SVGID_17_);fill:#A77C4F;}
	.st84{fill:#C3986F;}
	.st85{fill:#6D583F;}
	.st86{fill:#AA7953;}
	.st87{fill:#515050;}
	.st88{fill:#2072B8;}
	.st89{fill:#C6AC87;}
	.st90{fill:#9A7F5D;}
	.st91{fill:#9F7E5A;}
	.st92{fill:#F7EA31;}
	.st93{fill:#442159;}
	.st94{fill:#515251;}
	.st95{fill:#0872C4;}
	.st96{fill:#34A9EA;}
	.st97{fill:#8FD7EF;}
	.st98{fill:#231F20;}
	.st99{fill:none;stroke:#929497;stroke-width:4.5816;stroke-linecap:round;stroke-linejoin:round;stroke-miterlimit:10;}
	.st100{fill:#5D5D5D;}
	.st101{fill:#ACACAC;}
	.st102{fill:none;stroke:#5D5D5D;stroke-width:4.5816;stroke-miterlimit:10;}
	.st103{fill:#424242;}
	.st104{fill:#B8D432;}
	.st105{fill:none;stroke:#EA2627;stroke-width:12.3444;stroke-linecap:round;stroke-miterlimit:1;}
	.st106{fill:#AA7550;}
	.st107{fill:#19244E;}
	.st108{fill:#A6A8AB;}
	.st109{fill:#747475;}
	.st110{fill:#966A40;}
	.st111{clip-path:url(#SVGID_19_);}
	.st112{fill:none;stroke:#424242;stroke-width:5;stroke-miterlimit:10;}
	.st113{fill-rule:evenodd;clip-rule:evenodd;fill:#231F20;}
	.st114{fill-rule:evenodd;clip-rule:evenodd;fill:#D2D2D2;}
	.st115{fill-rule:evenodd;clip-rule:evenodd;fill:#966A40;}
	.st116{clip-path:url(#SVGID_21_);fill:#BEA15F;}
	.st117{clip-path:url(#SVGID_21_);fill:none;}
	.st118{clip-path:url(#SVGID_21_);fill:#937A47;}
	.st119{clip-path:url(#SVGID_21_);fill:#E4D2A9;}
	.st120{clip-path:url(#SVGID_21_);fill:#303333;}
	.st121{fill:none;stroke:#C6AC87;stroke-width:11.0966;stroke-linecap:round;stroke-linejoin:round;stroke-miterlimit:10;}
	.st122{fill:none;stroke:#E90D8B;stroke-width:0.971;stroke-miterlimit:1;}
	.st123{fill:#E90D8B;}
	.st124{fill:none;stroke:#FFFFFF;stroke-width:0.2424;stroke-linecap:round;stroke-linejoin:round;stroke-miterlimit:1;}
	.st125{fill:#FCB614;}
	.st126{fill:#6D563D;}
	.st127{fill-rule:evenodd;clip-rule:evenodd;fill:#6D563D;}
	.st128{clip-path:url(#SVGID_25_);fill-rule:evenodd;clip-rule:evenodd;fill:#221F1F;}
	.st129{fill:#008171;}
</style>
<g id="Layer_1">
</g>
<g id="Layer_2">
	<g>
		<path class="st89" d="M219.034,76.667c-2.855-0.583-5.72,1.309-6.303,4.162l-17.428,85.352c5.711,1.166,11.442-2.617,12.607-8.323
			l15.292-74.891C223.784,80.114,221.889,77.25,219.034,76.667"/>
		<path class="st101" d="M161.458,37.55l-0.004,0.017c-11.454-2.118-23.32,8.439-26.669,23.87
			c-3.349,15.431,3.075,29.957,14.376,32.777l-0.004,0.017l68.896,14.951l12.3-56.681L161.458,37.55z"/>
		<path class="st67" d="M133.905,69.448c-0.047,12.173,5.946,22.443,15.257,24.767l-0.004,0.017l68.896,14.951l4.475-20.62
			L133.905,69.448z"/>
		<g>
			<path class="st1" d="M258.806,322.354H110.377c-4.072,0-7.374-3.302-7.374-7.374s3.302-7.374,7.374-7.374h148.429
				c4.072,0,7.374,3.302,7.374,7.374S262.878,322.354,258.806,322.354z"/>
		</g>
		<polyline class="st121" points="164.75,166.169 142,128.669 157.5,95.669 		"/>
		<path class="st122" d="M192.016,129.728c2.37-0.536,4.692,0.93,5.227,3.297c0.535,2.368-0.93,4.688-3.301,5.224
			c-2.368,0.535-4.691-0.929-5.226-3.296C188.181,132.585,189.648,130.263,192.016,129.728z"/>
		<path d="M189.188,158.732c0,0-26.063,7.327-24.188-0.305c1.875-7.632,0-14.132,0-14.132s24.842-17.438,26.75-6.063
			S189.188,158.732,189.188,158.732z"/>
		<path class="st90" d="M159.052,133.696c0.214,0.947,1.375,1.679,2.323,1.465l31.031-7.014c0.949-0.214,1.445-1.321,1.231-2.268
			l-0.802-3.55c-0.267-1.182-1.138-1.732-2.087-1.518l-31.031,7.014c-0.948,0.214-1.734,1.139-1.467,2.321L159.052,133.696z"/>
		<path class="st123" d="M197.95,304.747c7.044,0,12.629,5.096,13.357,11.89H197.95h-9.957v-11.89H197.95z"/>
		<path class="st123" d="M169.293,304.747c6.8,0,12.385,5.096,13.115,11.89h-13.115h-10.2v-11.89H169.293z"/>
		<polygon class="st89" points="183.513,161.504 189.404,158.928 184.214,135.969 172.134,138.7 177.591,162.842 		"/>
		<path class="st58" d="M186.409,145.673c-1.789,0.902-3.866,1.621-5.999,2.103c-1.896,0.428-4.081,0.673-6.083,0.628l-2.193-9.703
			l12.082-2.731L186.409,145.673z"/>
		<path d="M170.513,103.989c7.817-1.767,15.657,3.18,17.422,10.989l1.177,5.207l-28.425,6.425l-1.177-5.207
			C157.745,113.593,162.695,105.756,170.513,103.989"/>
		<path class="st89" d="M188.043,115.451l5.029,22.248c-3.385,3.75-7.749,6.478-13.197,7.709c-7.58,1.713-15.229-1.284-15.229-1.284
			l-5.029-22.248L188.043,115.451z"/>
		<rect x="159.093" y="257.674" class="st89" width="10.2" height="47.074"/>
		<rect x="187.992" y="257.674" class="st89" width="10.201" height="47.074"/>
		<path class="st89" d="M199.164,151.875h-32.544h-12.87c-3.887,0,19.913,13.104,19.913,13.104h25.5V151.875z"/>
		<line class="st124" x1="169.293" y1="257.672" x2="169.293" y2="257.672"/>
		<polygon points="159.094,221.476 198.101,221.476 198.101,265.679 188.104,265.679 169.333,265.679 159.094,265.679 		"/>
		<polygon class="st125" points="191.637,151.875 169.293,161.824 162.007,151.875 159.093,151.875 159.093,221.517 
			198.193,221.517 198.193,151.875 		"/>
		<rect x="187.993" y="265.678" class="st58" width="10.258" height="5.097"/>
		<rect x="159.093" y="265.678" class="st58" width="10.2" height="5.097"/>
		<path class="st122" d="M166.686,139.932c0.535,2.368-0.932,4.688-3.302,5.224c-2.368,0.535-4.691-0.929-5.226-3.296
			c-0.535-2.368,0.933-4.689,3.301-5.224C163.828,136.1,166.15,137.564,166.686,139.932z"/>
		<path d="M178.751,117.302c1.91,4.046,6.395,6.266,10.897,5.249l-1.658-7.337L178.751,117.302z"/>
		<path d="M159.563,121.639l1.658,7.337c7.579-1.713,13.808-6.106,18.239-11.834L159.563,121.639z"/>
		<rect x="146.227" y="74.225" class="st75" width="65.568" height="243.162"/>
		<path class="st89" d="M157.539,76.224l4.583,22.78c-6.287,1.265-12.318-2.971-13.582-9.255
			C147.328,83.727,151.252,77.489,157.539,76.224"/>
		
			<ellipse transform="matrix(0.9773 0.2121 -0.2121 0.9773 21.9995 -44.9302)" class="st18" cx="220.454" cy="80.092" rx="21.5" ry="29"/>
		
			<ellipse transform="matrix(0.9773 0.2121 -0.2121 0.9773 22.2439 -45.7084)" class="st100" cx="224.204" cy="80.842" rx="21.5" ry="29"/>
		<path class="st32" d="M246.093,77.708c0.158-12.527-6.069-23.109-15.739-25.207c-9.569-2.076-19.511,4.804-24.61,16.056
			L246.093,77.708z"/>
	</g>
</g>
</svg>
