<?xml version="1.0" encoding="utf-8"?>
<!-- Generator: Adobe Illustrator 19.1.0, SVG Export Plug-In . SVG Version: 6.00 Build 0)  -->
<!DOCTYPE svg PUBLIC "-//W3C//DTD SVG 1.1//EN" "http://www.w3.org/Graphics/SVG/1.1/DTD/svg11.dtd">
<svg version="1.1" xmlns="http://www.w3.org/2000/svg" xmlns:xlink="http://www.w3.org/1999/xlink" x="0px" y="0px"
	 viewBox="0 0 350 350" style="enable-background:new 0 0 350 350;" xml:space="preserve">
<style type="text/css">
	.st0{fill:#FFFFFF;}
	.st1{fill:#D1D2D2;}
	.st2{fill:none;stroke:#C7C7C7;stroke-miterlimit:10;}
	.st3{fill:none;stroke:#ADADAD;stroke-miterlimit:10;}
	.st4{fill:#0A78CD;stroke:#0A78CD;stroke-miterlimit:10;}
	.st5{fill:#0A78CD;}
	.st6{fill:#F3F3F3;}
	.st7{fill:#767576;}
	.st8{fill:#4D4E4E;}
	.st9{fill:#3A3F4F;}
	.st10{fill:#333333;}
	.st11{fill:#A88763;}
	.st12{fill:#00A59B;}
	.st13{fill:#F79421;}
	.st14{fill:none;stroke:#CCCBCB;stroke-width:1.032;stroke-miterlimit:10;}
	.st15{fill:#B3B2B3;}
	.st16{fill:#70553A;}
	.st17{fill:#D93E26;}
	.st18{fill:#C7C7C7;}
	.st19{fill:#6EC1E8;}
	.st20{fill:#FCB71E;}
	.st21{clip-path:url(#SVGID_2_);}
	.st22{fill:#58595B;}
	.st23{clip-path:url(#SVGID_4_);fill:#2A3281;}
	.st24{clip-path:url(#SVGID_4_);fill:#6DC1E8;}
	.st25{clip-path:url(#SVGID_4_);}
	.st26{clip-path:url(#SVGID_4_);fill:#FFFFFF;}
	.st27{clip-path:url(#SVGID_6_);}
	.st28{fill:none;stroke:#A6A8AB;stroke-width:4;stroke-miterlimit:10;}
	.st29{fill:#A78563;}
	.st30{fill:#17244E;}
	.st31{fill:#836442;}
	.st32{fill:#464646;}
	.st33{clip-path:url(#SVGID_8_);fill:#757575;}
	.st34{clip-path:url(#SVGID_8_);fill:#464646;}
	.st35{clip-path:url(#SVGID_8_);fill:#676868;}
	.st36{clip-path:url(#SVGID_8_);fill:#0872C4;}
	.st37{clip-path:url(#SVGID_8_);}
	.st38{clip-path:url(#SVGID_8_);fill:#FFFFFF;}
	.st39{clip-path:url(#SVGID_10_);fill:#2A3281;}
	.st40{clip-path:url(#SVGID_10_);fill:#909090;}
	.st41{clip-path:url(#SVGID_10_);}
	.st42{clip-path:url(#SVGID_10_);fill:#FFFFFF;}
	.st43{clip-path:url(#SVGID_12_);}
	.st44{fill:#95DBF4;}
	.st45{fill:#6DC1E8;}
	.st46{fill:#A6E4F7;}
	.st47{fill:#937A47;}
	.st48{fill:#737374;}
	.st49{fill-rule:evenodd;clip-rule:evenodd;fill:#515251;}
	.st50{fill:#A0D6F2;}
	.st51{fill:#A88663;}
	.st52{fill-rule:evenodd;clip-rule:evenodd;fill:#A88663;}
	.st53{fill-rule:evenodd;clip-rule:evenodd;fill:none;}
	.st54{clip-path:url(#SVGID_16_);fill-rule:evenodd;clip-rule:evenodd;fill:#221F1F;}
	.st55{fill:#11743C;}
	.st56{fill:#4F5251;}
	.st57{fill:#513B27;}
	.st58{fill:#A08260;}
	.st59{fill:none;stroke:#FFFFFF;stroke-width:0.1456;stroke-linecap:round;stroke-linejoin:round;stroke-miterlimit:10;}
	.st60{fill:#563F25;}
	.st61{fill:#C49970;}
	.st62{fill:#2A3281;}
	.st63{fill:#B9131A;}
	.st64{fill:#DB5B26;}
	.st65{fill:#FCB713;}
	.st66{fill:#AB3924;}
	.st67{fill:#909090;}
	.st68{fill:#909090;stroke:#6D6E70;stroke-width:2;stroke-miterlimit:10;}
	.st69{fill:#D0D2D3;}
	.st70{fill:#6D6E70;}
	.st71{fill:#BBBDBF;}
	.st72{fill:#08BBF1;}
	.st73{fill:#71563B;}
	.st74{fill:#757575;}
	.st75{fill:none;}
	.st76{fill:#4BC0BE;}
	.st77{fill:#E3E3E3;}
	.st78{fill:none;stroke:#929497;stroke-width:4;stroke-miterlimit:10;}
	.st79{fill:#E71223;}
	.st80{fill:#F7CD47;}
	.st81{fill:#F5891F;}
	.st82{fill:#A77C4F;}
	.st83{clip-path:url(#SVGID_17_);fill:#A77C4F;}
	.st84{fill:#C3986F;}
	.st85{fill:#6D583F;}
	.st86{fill:#AA7953;}
	.st87{fill:#515050;}
	.st88{fill:#2072B8;}
	.st89{fill:#C6AC87;}
	.st90{fill:#9A7F5D;}
	.st91{fill:#9F7E5A;}
	.st92{fill:#F7EA31;}
	.st93{fill:#442159;}
	.st94{fill:#515251;}
	.st95{fill:#0872C4;}
	.st96{fill:#34A9EA;}
	.st97{fill:#8FD7EF;}
	.st98{fill:#231F20;}
	.st99{fill:none;stroke:#929497;stroke-width:4.5816;stroke-linecap:round;stroke-linejoin:round;stroke-miterlimit:10;}
	.st100{fill:#5D5D5D;}
	.st101{fill:#ACACAC;}
	.st102{fill:none;stroke:#5D5D5D;stroke-width:4.5816;stroke-miterlimit:10;}
	.st103{fill:#424242;}
	.st104{fill:#B8D432;}
	.st105{fill:none;stroke:#EA2627;stroke-width:12.3444;stroke-linecap:round;stroke-miterlimit:1;}
	.st106{fill:#AA7550;}
	.st107{fill:#19244E;}
	.st108{fill:#A6A8AB;}
	.st109{fill:#747475;}
	.st110{fill:#966A40;}
	.st111{clip-path:url(#SVGID_19_);}
	.st112{fill:none;stroke:#424242;stroke-width:5;stroke-miterlimit:10;}
	.st113{fill-rule:evenodd;clip-rule:evenodd;fill:#231F20;}
	.st114{fill-rule:evenodd;clip-rule:evenodd;fill:#D2D2D2;}
	.st115{fill-rule:evenodd;clip-rule:evenodd;fill:#966A40;}
	.st116{clip-path:url(#SVGID_21_);fill:#BEA15F;}
	.st117{clip-path:url(#SVGID_21_);fill:none;}
	.st118{clip-path:url(#SVGID_21_);fill:#937A47;}
	.st119{clip-path:url(#SVGID_21_);fill:#E4D2A9;}
	.st120{clip-path:url(#SVGID_21_);fill:#303333;}
	.st121{fill:none;stroke:#C6AC87;stroke-width:11.0966;stroke-linecap:round;stroke-linejoin:round;stroke-miterlimit:10;}
	.st122{fill:none;stroke:#E90D8B;stroke-width:0.971;stroke-miterlimit:1;}
	.st123{fill:#E90D8B;}
	.st124{fill:none;stroke:#FFFFFF;stroke-width:0.2424;stroke-linecap:round;stroke-linejoin:round;stroke-miterlimit:1;}
	.st125{fill:#FCB614;}
	.st126{fill:#6D563D;}
	.st127{fill-rule:evenodd;clip-rule:evenodd;fill:#6D563D;}
	.st128{clip-path:url(#SVGID_25_);fill-rule:evenodd;clip-rule:evenodd;fill:#221F1F;}
	.st129{fill:#008171;}
</style>
<g id="Layer_1">
</g>
<g id="Layer_2">
	<g>
		<path class="st1" d="M258.806,320.354H80.377c-4.072,0-7.374-3.302-7.374-7.374s3.302-7.374,7.374-7.374h178.429
			c4.072,0,7.374,3.302,7.374,7.374S262.878,320.354,258.806,320.354z"/>
	</g>
	<g>
		<rect x="240.958" y="62.419" class="st99" width="21" height="132.5"/>
		<rect x="114.291" y="282.419" class="st100" width="102" height="16.667"/>
		<path class="st77" d="M108.708,291.981h112.208c1.496,0,2.708-1.213,2.708-2.708V54.461c0-1.496-1.213-2.708-2.708-2.708H108.708
			c-1.496,0-2.708,1.213-2.708,2.708v234.811C106,290.768,107.213,291.981,108.708,291.981z"/>
		<rect x="122.458" y="70.643" class="st0" width="85.5" height="118.552"/>
		<polygon class="st67" points="246.958,213.419 223.625,206.409 223.625,51.763 246.958,44.919 		"/>
		<rect x="246.958" y="45.086" class="st77" width="11" height="168.333"/>
		<line class="st78" x1="216.458" y1="106.419" x2="115.958" y2="106.419"/>
		<line class="st78" x1="216.458" y1="154.419" x2="115.958" y2="154.419"/>
		<polygon class="st101" points="115.958,197.419 216.458,197.419 207.958,187.195 122.458,187.195 		"/>
		<path class="st101" d="M120.854,215.419h89.708c0.771,0,1.396-0.625,1.396-1.396v-4.708c0-0.771-0.625-1.396-1.396-1.396h-89.708
			c-0.771,0-1.396,0.625-1.396,1.396v4.708C119.458,214.794,120.083,215.419,120.854,215.419z"/>
		<polygon class="st18" points="207.958,70.643 122.458,70.643 114.958,60.419 215.458,60.419 		"/>
		<path class="st102" d="M116.104,197.419h99.354V62.023c0-0.886-0.718-1.604-1.604-1.604h-97.5c-0.771,0-1.396,0.625-1.396,1.396
			v134.458C114.958,196.906,115.471,197.419,116.104,197.419z"/>
	</g>
	<polygon class="st101" points="243.25,103.982 234.284,102.81 234.284,61.045 243.045,58.419 243.045,53.169 227.167,58.086 
		227.167,104.252 234.284,105.252 234.284,105.223 243.25,106.482 	"/>
	<polygon class="st101" points="243.045,149.752 234.284,147.619 234.284,109.752 227.167,108.586 227.167,150.086 231.21,151.127 
		243.045,154.227 	"/>
	<polygon class="st101" points="243.045,197.419 234.284,194.109 234.284,157.086 227.167,154.919 227.167,191.419 227.167,196.419 
		234.284,199.252 234.284,199.184 243.045,202.586 	"/>
	<g>
		<g>
			
				<rect x="204.677" y="106.1" transform="matrix(0.9983 -0.0584 0.0584 0.9983 -6.2193 12.5067)" class="st126" width="12.5" height="13.178"/>
			<path class="st127" d="M207.943,65.034c-6.116,0.358-11.338,4.189-14.415,9.813l1.68,28.724
				c3.511,4.134,9.212,6.175,15.329,5.818c6.174-0.361,14.717-6.252,14.195-15.168l-1.226-20.969
				C219.797,67.937,214.118,64.673,207.943,65.034z"/>
			<path class="st53" d="M208.037,66.647c-6.194,0.362-11.482,4.243-14.597,9.938l1.708,29.206
				c3.758,5.293,9.322,6.135,15.516,5.773c6.253-0.366,11.579-4.318,14.683-10.101l-1.549-26.494
				C220.041,69.586,214.29,66.281,208.037,66.647z"/>
			<g>
				<defs>
					<path id="SVGID_22_" d="M208.037,66.647c-6.194,0.362-11.482,4.243-14.597,9.938l1.687,28.851
						c3.758,5.293,9.343,6.49,15.537,6.128c6.253-0.366,11.579-4.318,14.683-10.101l-1.549-26.494
						C220.041,69.586,214.29,66.281,208.037,66.647z"/>
				</defs>
				<clipPath id="SVGID_2_">
					<use xlink:href="#SVGID_22_"  style="overflow:visible;"/>
				</clipPath>
			</g>
			<g>
				<defs>
					<path id="SVGID_24_" d="M207.943,65.034c-6.116,0.358-10.76,2.767-14.676,5.342l1.969,33.663
						c3.711,5.226,9.185,5.708,15.301,5.35c6.174-0.361,14.804-4.765,14.291-13.531l-1.322-22.606
						C219.797,67.937,214.118,64.673,207.943,65.034z"/>
				</defs>
				<clipPath id="SVGID_4_">
					<use xlink:href="#SVGID_24_"  style="overflow:visible;"/>
				</clipPath>
				<path style="clip-path:url(#SVGID_4_);fill-rule:evenodd;clip-rule:evenodd;fill:#221F1F;" d="M193.177,77.223
					c0,0,3.433-0.143,5.064,0.887c2.366,1.493,2.839,9.579,2.839,9.579l2.61-0.153l-0.276-4.712c0,0,5.387-0.762,5.872,4.385
					c0.39,4.14-3.198,5.171-3.198,5.171s0.401,4.705,0.715,10.083c0.223,3.818,6.007,7.919,10.8,5.467
					c2.289-1.171,9.31-7.029,9.31-7.029l1.034-42.054c0,0-25.669-3.894-30.722,3.204c-5.053,7.098-4.378,9.473-4.378,9.473
					L193.177,77.223z"/>
			</g>
		</g>
		<g>
			<path class="st126" d="M225.119,174.2h1.932h7.901h1.342c0.032,0.031,0.082,0.055,0.111,0.088l5.02,8.685
				c-1.403,1.197-2.961,2.932-6.373,3.058c-0.035,0.002-0.065,0.024-0.101,0.024h-9.833c-1.316,0-2.384-1.24-2.384-2.769v-6.317
				C222.735,175.44,223.802,174.2,225.119,174.2z"/>
			<path class="st32" d="M189.024,190.172l0.027,2.239l0.057,110.593c0,0-1.831,0-5.952,2.121c-4.12,2.121-2.976,6.984-2.976,6.984
				h26.096c0,0,3.312-89.516,3.382-90.298c0.166-2.93,3.621-3.018,3.836-0.146c0.115,0.884,6.682,70.389,8.123,82.528
				c-2.774,1.33-4.582,3.466-4.582,5.882c0,0.526,0.089,1.658,0.251,2.152h18.993V190.172H189.024z"/>
			<path class="st129" d="M131.922,156.146c0.068,3.909,3.092,6.148,6.696,7.35c1.621,0.54,19.357,5.942,29.53,8.283
				c4.435,1.021,8.45-0.608,10.984-3.961c3.563-4.716,9.887-13.822,9.887-13.822v36.607l47.358-0.025c0,0,0.049-8.002,0.049-16.303
				l6.375,11.09c0,0,16.956-17.335,24.404-25.788c5.025-5.704,3.302-10.19,0.184-14.008c-2.643-3.236-20.953-21.402-26.468-26.86
				c-0.439-0.514-0.919-0.99-1.446-1.429c-0.076-0.075-0.128-0.127-0.128-0.127l-0.003,0.023c-1.959-1.589-4.415-2.632-6.995-2.595
				c-6.991,0.099-12.428-0.099-12.428-0.099c-1.165,0.795-2.515,3.2-9.464,3.2c-6.949,0-6.897-3.101-6.897-3.101s-7.476,0-11.166,0
				c-5.572,0-7.33,2.585-8.398,6.163c-0.936,3.136-16.751,34.943-16.751,34.943l-25.407-5.764
				C138.001,150.669,131.858,152.455,131.922,156.146z M236.377,172.585c0.097-10.239-0.049-22.516,0.049-35.339l15.659,16.248
				L236.377,172.585z"/>
			<path class="st126" d="M139.98,149.417l7.259,1.722l-4.625,13.538c-3.68-0.945-6.484-1.92-7.47-2.276
				c-3.574-1.29-4.631-5.912-2.92-9.427C133.839,149.654,136.223,148.343,139.98,149.417z"/>
		</g>
	</g>
</g>
</svg>
