<?xml version="1.0" encoding="utf-8"?>
<!-- Generator: Adobe Illustrator 19.1.0, SVG Export Plug-In . SVG Version: 6.00 Build 0)  -->
<!DOCTYPE svg PUBLIC "-//W3C//DTD SVG 1.1//EN" "http://www.w3.org/Graphics/SVG/1.1/DTD/svg11.dtd">
<svg version="1.1" xmlns="http://www.w3.org/2000/svg" xmlns:xlink="http://www.w3.org/1999/xlink" x="0px" y="0px"
	 viewBox="0 0 350 350" style="enable-background:new 0 0 350 350;" xml:space="preserve">
<style type="text/css">
	.st0{fill:#FFFFFF;}
	.st1{fill:#D1D2D2;}
	.st2{fill:none;stroke:#C7C7C7;stroke-miterlimit:10;}
	.st3{fill:none;stroke:#ADADAD;stroke-miterlimit:10;}
	.st4{fill:#0A78CD;stroke:#0A78CD;stroke-miterlimit:10;}
	.st5{fill:#0A78CD;}
	.st6{fill:#F3F3F3;}
	.st7{fill:#767576;}
	.st8{fill:#4D4E4E;}
	.st9{fill:#3A3F4F;}
	.st10{fill:#333333;}
	.st11{fill:#A88763;}
	.st12{fill:#00A59B;}
	.st13{fill:#F79421;}
	.st14{fill:none;stroke:#CCCBCB;stroke-width:1.032;stroke-miterlimit:10;}
	.st15{fill:#B3B2B3;}
	.st16{fill:#70553A;}
	.st17{fill:#D93E26;}
	.st18{fill:#C7C7C7;}
	.st19{fill:#6EC1E8;}
	.st20{fill:#FCB71E;}
	.st21{clip-path:url(#SVGID_2_);}
	.st22{fill:#58595B;}
	.st23{clip-path:url(#SVGID_4_);fill:#2A3281;}
	.st24{clip-path:url(#SVGID_4_);fill:#6DC1E8;}
	.st25{clip-path:url(#SVGID_4_);}
	.st26{clip-path:url(#SVGID_4_);fill:#FFFFFF;}
	.st27{clip-path:url(#SVGID_6_);}
	.st28{fill:none;stroke:#A6A8AB;stroke-width:4;stroke-miterlimit:10;}
	.st29{fill:#A78563;}
	.st30{fill:#17244E;}
	.st31{fill:#836442;}
	.st32{fill:#464646;}
	.st33{clip-path:url(#SVGID_8_);fill:#757575;}
	.st34{clip-path:url(#SVGID_8_);fill:#464646;}
	.st35{clip-path:url(#SVGID_8_);fill:#676868;}
	.st36{clip-path:url(#SVGID_8_);fill:#0872C4;}
	.st37{clip-path:url(#SVGID_8_);}
	.st38{clip-path:url(#SVGID_8_);fill:#FFFFFF;}
	.st39{clip-path:url(#SVGID_10_);fill:#2A3281;}
	.st40{clip-path:url(#SVGID_10_);fill:#909090;}
	.st41{clip-path:url(#SVGID_10_);}
	.st42{clip-path:url(#SVGID_10_);fill:#FFFFFF;}
	.st43{clip-path:url(#SVGID_12_);}
	.st44{fill:#95DBF4;}
	.st45{fill:#6DC1E8;}
	.st46{fill:#A6E4F7;}
	.st47{fill:#937A47;}
	.st48{fill:#737374;}
	.st49{fill-rule:evenodd;clip-rule:evenodd;fill:#515251;}
	.st50{fill:#A0D6F2;}
	.st51{fill:#A88663;}
	.st52{fill-rule:evenodd;clip-rule:evenodd;fill:#A88663;}
	.st53{fill-rule:evenodd;clip-rule:evenodd;fill:none;}
	.st54{clip-path:url(#SVGID_16_);fill-rule:evenodd;clip-rule:evenodd;fill:#221F1F;}
	.st55{fill:#11743C;}
	.st56{fill:#4F5251;}
	.st57{fill:#513B27;}
	.st58{fill:#A08260;}
	.st59{fill:none;stroke:#FFFFFF;stroke-width:0.1456;stroke-linecap:round;stroke-linejoin:round;stroke-miterlimit:10;}
	.st60{fill:#563F25;}
	.st61{fill:#C49970;}
	.st62{fill:#2A3281;}
	.st63{fill:#B9131A;}
	.st64{fill:#DB5B26;}
	.st65{fill:#FCB713;}
	.st66{fill:#AB3924;}
	.st67{fill:#909090;}
	.st68{fill:#909090;stroke:#6D6E70;stroke-width:2;stroke-miterlimit:10;}
	.st69{fill:#D0D2D3;}
	.st70{fill:#6D6E70;}
	.st71{fill:#BBBDBF;}
	.st72{fill:#08BBF1;}
	.st73{fill:#71563B;}
	.st74{fill:#757575;}
	.st75{fill:none;}
	.st76{fill:#4BC0BE;}
	.st77{fill:#E3E3E3;}
	.st78{fill:none;stroke:#929497;stroke-width:4;stroke-miterlimit:10;}
	.st79{fill:#E71223;}
	.st80{fill:#F7CD47;}
	.st81{fill:#F5891F;}
	.st82{fill:#A77C4F;}
	.st83{clip-path:url(#SVGID_17_);fill:#A77C4F;}
	.st84{fill:#C3986F;}
	.st85{fill:#6D583F;}
	.st86{fill:#AA7953;}
	.st87{fill:#515050;}
	.st88{fill:#2072B8;}
	.st89{fill:#C6AC87;}
	.st90{fill:#9A7F5D;}
	.st91{fill:#9F7E5A;}
	.st92{fill:#F7EA31;}
	.st93{fill:#442159;}
	.st94{fill:#515251;}
	.st95{fill:#0872C4;}
	.st96{fill:#34A9EA;}
	.st97{fill:#8FD7EF;}
	.st98{fill:#231F20;}
	.st99{fill:none;stroke:#929497;stroke-width:4.5816;stroke-linecap:round;stroke-linejoin:round;stroke-miterlimit:10;}
	.st100{fill:#5D5D5D;}
	.st101{fill:#ACACAC;}
	.st102{fill:none;stroke:#5D5D5D;stroke-width:4.5816;stroke-miterlimit:10;}
	.st103{fill:#424242;}
	.st104{fill:#B8D432;}
	.st105{fill:none;stroke:#EA2627;stroke-width:12.3444;stroke-linecap:round;stroke-miterlimit:1;}
	.st106{fill:#AA7550;}
	.st107{fill:#19244E;}
	.st108{fill:#A6A8AB;}
	.st109{fill:#747475;}
	.st110{fill:#966A40;}
	.st111{clip-path:url(#SVGID_19_);}
	.st112{fill:none;stroke:#424242;stroke-width:5;stroke-miterlimit:10;}
	.st113{fill-rule:evenodd;clip-rule:evenodd;fill:#231F20;}
	.st114{fill-rule:evenodd;clip-rule:evenodd;fill:#D2D2D2;}
	.st115{fill-rule:evenodd;clip-rule:evenodd;fill:#966A40;}
	.st116{clip-path:url(#SVGID_21_);fill:#BEA15F;}
	.st117{clip-path:url(#SVGID_21_);fill:none;}
	.st118{clip-path:url(#SVGID_21_);fill:#937A47;}
	.st119{clip-path:url(#SVGID_21_);fill:#E4D2A9;}
	.st120{clip-path:url(#SVGID_21_);fill:#303333;}
	.st121{fill:none;stroke:#C6AC87;stroke-width:11.0966;stroke-linecap:round;stroke-linejoin:round;stroke-miterlimit:10;}
	.st122{fill:none;stroke:#E90D8B;stroke-width:0.971;stroke-miterlimit:1;}
	.st123{fill:#E90D8B;}
	.st124{fill:none;stroke:#FFFFFF;stroke-width:0.2424;stroke-linecap:round;stroke-linejoin:round;stroke-miterlimit:1;}
	.st125{fill:#FCB614;}
	.st126{fill:#6D563D;}
	.st127{fill-rule:evenodd;clip-rule:evenodd;fill:#6D563D;}
	.st128{clip-path:url(#SVGID_25_);fill-rule:evenodd;clip-rule:evenodd;fill:#221F1F;}
	.st129{fill:#008171;}
</style>
<g id="Layer_1">
</g>
<g id="Layer_2">
	<g>
		<path class="st1" d="M304.806,322.354H76.377c-4.072,0-7.374-3.302-7.374-7.374s3.302-7.374,7.374-7.374h228.429
			c4.072,0,7.374,3.302,7.374,7.374S308.878,322.354,304.806,322.354z"/>
	</g>
	<path class="st1" d="M79.246,84.341C86.475,78.866,91,71.073,91,62.419c0-16.569-16.565-30-37-30s-37,13.431-37,30s16.565,30,37,30
		c6.259,0,12.151-1.265,17.319-3.489L87,95.419L79.246,84.341z"/>
	<g>
		<path class="st0" d="M52.214,69.113c-0.123-0.342-0.232-0.786-0.328-1.333s-0.144-1.087-0.144-1.62
			c0-0.834,0.167-1.589,0.502-2.267c0.335-0.676,0.752-1.309,1.252-1.896c0.498-0.588,1.038-1.155,1.619-1.702s1.121-1.08,1.621-1.6
			c0.498-0.52,0.915-1.066,1.25-1.641s0.503-1.203,0.503-1.887c0-0.615-0.123-1.151-0.369-1.61c-0.246-0.457-0.585-0.84-1.015-1.148
			c-0.432-0.307-0.924-0.536-1.477-0.687c-0.555-0.15-1.146-0.226-1.774-0.226c-2.037,0-3.979,0.909-5.824,2.728v-4.737
			c2.242-1.313,4.566-1.969,6.973-1.969c1.107,0,2.153,0.144,3.138,0.431s1.846,0.711,2.584,1.271s1.319,1.258,1.743,2.092
			s0.636,1.805,0.636,2.912c0,1.053-0.178,1.989-0.533,2.81s-0.804,1.576-1.344,2.266c-0.54,0.691-1.121,1.303-1.742,1.836
			c-0.623,0.533-1.204,1.066-1.744,1.6s-0.987,1.087-1.343,1.661c-0.355,0.574-0.533,1.21-0.533,1.907
			c0,0.588,0.075,1.121,0.226,1.6s0.301,0.882,0.451,1.21H52.214z M54.552,77.788c-0.779,0-1.47-0.267-2.071-0.8
			c-0.574-0.52-0.861-1.162-0.861-1.928c0-0.779,0.287-1.422,0.861-1.928c0.588-0.547,1.278-0.82,2.071-0.82
			c0.779,0,1.463,0.273,2.051,0.82c0.574,0.506,0.861,1.148,0.861,1.928c0,0.766-0.287,1.408-0.861,1.928
			C56.001,77.522,55.317,77.788,54.552,77.788z"/>
	</g>
	<path class="st103" d="M235.718,214.132l-4.301-10.917l-3.498,1.378c0.526,1.714-0.331,3.57-2.028,4.238
		c-1.696,0.668-3.589-0.104-4.373-1.717l-16.152,6.363l25.217,64.012l26.051-10.263l-3.519-8.932l-19.601,7.722l-12.022-30.517
		l13.646-5.376l-1.173-2.977l-13.646,5.376l-1.173-2.977l13.646-5.376l-1.173-2.977l-13.646,5.376l-1.857-4.714L235.718,214.132z"/>
	<polygon class="st103" points="251.819,144.422 240.678,144.422 240.678,136.066 273,136.066 273,185.06 243.463,185.06 
		243.463,176.704 251.819,176.704 	"/>
	<path class="st30" d="M128.046,299.815L128.046,299.815l4.696-14.089h-16.436v28.177h11.741h15.262
		C142.722,305.979,135.969,299.815,128.046,299.815"/>
	<polygon class="st51" points="116.305,203.542 128.044,218.217 128.044,285.726 116.305,285.726 	"/>
	<polygon class="st104" points="136.724,147.901 143.443,136.345 128.663,128.012 126.513,143.063 	"/>
	<line class="st105" x1="127.051" y1="214.021" x2="127.051" y2="214.021"/>
	<path class="st55" d="M156.553,159.283c3.224,1.882,6.98,0.307,8.171-3.232c1.523-4.524,0.369-7.433-4.62-10.3l-37.354-21.502
		c-3.495-1.882-7.525-0.538-9.406,2.688c-1.881,3.224-0.806,7.525,2.419,9.407L156.553,159.283z"/>
	<g>
		<rect x="105.821" y="105.435" class="st84" width="16.392" height="13.707"/>
		<path class="st55" d="M113.883,117.26c17.737,0,20.155,20.159,20.155,33.06v34.673h-28.217V117.26H113.883z"/>
		<polygon class="st106" points="122.213,108.66 105.822,102.747 105.822,109.198 122.213,117.263 		"/>
		<rect x="105.817" y="182.212" class="st107" width="28.192" height="46.289"/>
	</g>
	<path class="st55" d="M133.172,171.174c1.374,3.594,5.448,4.483,8.839,2.666c3.447-1.847,4.309-4.432,1.428-11.873l-12.379-30.712
		c-1.332-3.33-5.155-5.184-8.751-3.811c-3.595,1.374-5.449,5.197-4.076,8.792L133.172,171.174z"/>
	<path class="st84" d="M94.508,82.165c2.986-11.72,15.01-18.642,26.729-15.656l19.53,4.976c0,0,1.024,18.843,1.152,19.431
		c0.183,2.543,1.541,4.831,3.492,5.883l-1.128,4.428l-4.947-1.261l-3.915,15.367l-25.26-6.436l-0.261-0.066
		C98.246,105.584,91.522,93.885,94.508,82.165"/>
	<path class="st10" d="M118.436,94.918l4.645-18.231l18.228,4.644c-0.108-5.021-0.541-9.846-0.541-9.846l-19.532-4.977
		c-11.718-2.986-23.743,3.936-26.729,15.656c-2.124,8.335,0.705,16.821,6.808,22.26L118.436,94.918z"/>
	<path class="st84" d="M121.555,82.676l-3.119,12.242c-3.386-0.863-5.326-4.13-4.397-7.776
		C114.902,83.755,118.169,81.814,121.555,82.676"/>
	
		<rect x="120.659" y="77.191" transform="matrix(0.969 0.2469 -0.2469 0.969 25.217 -27.9063)" class="st10" width="6.449" height="18.814"/>
	<g>
		<g>
			<rect x="155.235" y="194.372" class="st108" width="6.524" height="119.532"/>
			<polygon class="st109" points="161.759,207.943 161.759,188.852 155.235,188.852 155.235,211.493 			"/>
		</g>
		<g>
			<rect x="272.535" y="194.372" class="st108" width="6.524" height="119.532"/>
			<polygon class="st109" points="279.058,207.943 279.058,188.852 272.534,188.852 272.534,211.493 			"/>
		</g>
		<rect x="145.175" y="184.993" class="st109" width="144.84" height="12.2"/>
		<rect x="256.264" y="184.993" class="st108" width="33.75" height="12.2"/>
	</g>
	<rect x="105.822" y="179.911" class="st110" width="28.283" height="11.182"/>
	<g>
		<defs>
			<polygon id="SVGID_18_" points="171.061,120.543 183.41,160.396 145.115,182.13 138.905,131.761 			"/>
		</defs>
		<clipPath id="SVGID_2_">
			<use xlink:href="#SVGID_18_"  style="overflow:visible;"/>
		</clipPath>
		<g class="st21">
			<path class="st84" d="M165.643,157.418c-2.438,2.904-6.682,3.434-9.535,1.257c-2.904-2.438-3.434-6.683-1.258-9.536
				l27.422-34.502c2.439-2.905,6.683-3.434,9.538-1.257c2.903,2.438,3.432,6.683,1.044,9.849L165.643,157.418z"/>
			<path class="st55" d="M165.785,135.32l-11.273,14.163c-2.191,2.875-1.658,7.152,1.268,9.608c2.874,2.193,7.15,1.659,9.605-1.266
				l11.274-14.163L165.785,135.32z"/>
		</g>
	</g>
	<g>
		<g>
			<path class="st112" d="M232.288,160.355l-39.472,12.157c-2.881,0.887-5.971-0.842-6.901-3.862l-15.178-49.281
				c-0.93-3.02,0.651-6.188,3.533-7.076l14.943-4.602"/>
		</g>
	</g>
	<path class="st84" d="M139.556,161.482c-3.843-0.22-6.924,2.706-7.143,6.547c-0.222,3.842,2.704,6.923,6.547,7.142l45.001,2.539
		c3.576,0.26,6.923-2.707,7.144-6.548c0.22-3.842-2.705-6.923-6.548-7.142L139.556,161.482z"/>
	<path class="st55" d="M160.666,162.558l-21.11-1.077c-3.843-0.219-6.924,2.707-7.144,6.547c-0.222,3.842,2.704,6.924,6.547,7.144
		l21.416,1.3L160.666,162.558z"/>
	<path class="st113" d="M119.43,184.89h-6.065c0.002,9.758-0.071,19.374-0.201,29.115c0.039,0.401,0.077,0.801,0.117,1.2
		c-0.051,1.137,0.3,2.235,0.844,2.83c0.441,0.362,1.049,0.789,1.619,0.814c0.843,0.324,1.773-0.087,2.433-0.798
		c0.66-0.709,1.047-1.715,1.033-2.684c-0.038-0.4-0.013-0.968,0.116-1.304C119.246,204.348,119.313,194.67,119.43,184.89z"/>
	<path class="st114" d="M103.584,183.159c0.956-0.981,6.204-8.595,8.133-7.082c1.762,1.447,0.123,6.211,1.248,5.295
		c0,0,0,0,0.401-0.038c0.002,1.017-0.001,2.024,0,3.038h6.07c0.011-0.941,0.014-1.869,0.027-2.812c0,0,0,0,0.569,0.027
		c0,0-0.327-4.172,1.808-4.699c2.368-0.63,4.338,1.283,6.175,1.027c0.97-0.011,1.435-0.218,1.798-0.657c0,0,0,0,0.214-0.241v-5.548
		c-0.301-0.723-0.857-1.235-1.954-1.236c-1.541-0.015-4.464,1.557-5.642,1.105c-1.412-0.351-4.48-1.917-7.353-1.48
		c-3.041,0.371-6.004,1.543-8.77,4.717C103.54,177.748,102.394,184.242,103.584,183.159z"/>
	<rect x="110.602" y="181.315" class="st115" width="11.823" height="4.924"/>
	<g>
		<defs>
			<rect id="SVGID_20_" x="175.461" y="240.419" width="134.016" height="74.441"/>
		</defs>
		<clipPath id="SVGID_4_">
			<use xlink:href="#SVGID_20_"  style="overflow:visible;"/>
		</clipPath>
		<rect x="233.278" y="240.119" style="clip-path:url(#SVGID_4_);fill:#BEA15F;" width="49.635" height="74.149"/>
		<rect x="233.278" y="240.119" style="clip-path:url(#SVGID_4_);fill:none;" width="49.635" height="74.149"/>
		<rect x="197.366" y="240.119" style="clip-path:url(#SVGID_4_);fill:#937A47;" width="35.912" height="74.149"/>
		<rect x="197.366" y="240.119" style="clip-path:url(#SVGID_4_);fill:none;" width="35.912" height="74.149"/>
		<polygon style="clip-path:url(#SVGID_4_);fill:#BEA15F;" points="211.381,258.511 175.76,258.511 197.366,240.12 233.278,240.12 
					"/>
		<polygon style="clip-path:url(#SVGID_4_);fill:none;" points="211.381,258.511 175.76,258.511 197.366,240.12 233.278,240.12 		
			"/>
		<polygon style="clip-path:url(#SVGID_4_);fill:#E4D2A9;" points="308.899,258.511 259.264,258.511 233.279,240.12 282.913,240.12 
					"/>
		<polygon style="clip-path:url(#SVGID_4_);fill:none;" points="308.899,258.511 259.264,258.511 233.279,240.12 282.913,240.12 		
			"/>
		<rect x="214.008" y="278.07" style="clip-path:url(#SVGID_4_);fill:#303333;" width="8.175" height="9.05"/>
		<rect x="214.008" y="278.07" style="clip-path:url(#SVGID_4_);fill:none;" width="8.175" height="9.05"/>
		<polygon style="clip-path:url(#SVGID_4_);fill:#303333;" points="226.855,278.07 209.337,278.07 218.095,271.063 		"/>
		<polygon style="clip-path:url(#SVGID_4_);fill:none;" points="226.855,278.07 209.337,278.07 218.095,271.063 		"/>
	</g>
	<circle class="st0" cx="264" cy="148.086" r="3.667"/>
</g>
</svg>
